<svg xmlns="http://www.w3.org/2000/svg" xmlns:svg="http://www.w3.org/2000/svg" xmlns:xlink="http://www.w3.org/1999/xlink" id="svg2" x="0" y="0" enable-background="new 0 0 243 213" version="1.1" viewBox="0 0 243 213" xml:space="preserve"><style type="text/css">.st0{fill:#a90533}</style><g id="g8"><path id="path10" d="M38,185.2c-18.8-19.9-29.8-47.5-29.8-80.3c0-29,9.1-54,24.8-73l0,0H0v153.3L38,185.2L38,185.2 L38,185.2L38,185.2z" class="st0"/><path id="path12" d="M211.7,185.2c8.1-8.7,15.4-18.9,21.9-30.6l-36.5-18.2c-12.8,20.8-31.6,40-57.5,40.1 c-37.7-0.1-52.5-32.4-52.5-73.9h141c0.2-4.7,0.2-6.9,0-9.1c0.9-24.7-5.6-45.5-17.5-61.6l-0.1,0h31.7v153.3L211.7,185.2L211.7,185.2 L211.7,185.2L211.7,185.2z" class="st0"/><path id="path14" d="M89.4,67c1.6-18.8,16.4-31.4,33.8-31.5c17.5,0,30.1,12.7,30.6,31.5H89.4L89.4,67z" class="st0"/></g></svg>